# xmcd
#
# Track frame offsets:
#	150
#	18968
#	39411
#	59862
#	83331
#	103953
#	118211
#	137986
#	157758
#	177391
#	194139
#	212013
#
# Disc length: 3010 seconds
#
# Revision: 0
# Processed by: cddbd v1.5.2PL0 Copyright (c) Steve Scherf et al.
# Submitted via: EZCDAudioConverter 3.1.7.1
#
DISCID=ac0bc00c
DTITLE=Matt Patershuk and The Dirty Plaid Orchestra - Outside the Lights of Town
DYEAR=2013
DGENRE=Country
TTITLE0=King of This Town
TTITLE1=Silver Bangles
TTITLE2=Mill Town
TTITLE3=Let's Get It On
TTITLE4=Should've Known Better
TTITLE5=Swayback
TTITLE6=Big Wind
TTITLE7=First Snow
TTITLE8=Colour Song
TTITLE9=Better Man
TTITLE10=Gold
TTITLE11=Outside the Lights of Town
EXTD=
EXTT0=
EXTT1=
EXTT2=
EXTT3=
EXTT4=
EXTT5=
EXTT6=
EXTT7=
EXTT8=
EXTT9=
EXTT10=
EXTT11=
PLAYORDER=
